<svg width="121" height="39" viewBox="0 0 121 39" fill="none" xmlns="http://www.w3.org/2000/svg">
<path d="M59.3894 5.92005C59.4952 6.00987 59.5128 6.47395 59.4423 7.31228C59.4071 8.15061 59.3013 9.22847 59.125 10.5459C58.984 11.8632 58.7901 13.3453 58.5433 14.992C58.2965 16.6387 58.0321 18.3154 57.75 20.022C57.4679 21.6987 57.1683 23.3604 56.851 25.0071C56.5689 26.6239 56.2869 28.061 56.0048 29.3185C55.758 30.576 55.5288 31.594 55.3173 32.3725C55.1058 33.1509 54.9471 33.5401 54.8413 33.5401C54.6298 33.5401 54.383 33.4503 54.101 33.2707C53.8542 33.0611 53.6074 32.8216 53.3606 32.5521C53.149 32.2826 52.9375 32.0132 52.726 31.7437C52.5497 31.4742 52.4439 31.2497 52.4087 31.0701C52.3381 30.7407 52.1619 30.1419 51.8798 29.2736C51.633 28.4053 51.4215 27.3425 51.2452 26.085C51.1042 25.2466 50.9631 24.3484 50.8221 23.3903C50.6811 22.6119 50.5401 21.7286 50.399 20.7406C50.258 19.7526 50.117 18.7795 49.976 17.8214C49.8349 18.4501 49.6763 19.1837 49.5 20.022C49.359 20.8603 49.2003 21.6687 49.024 22.4472C48.8478 23.3454 48.6362 24.2736 48.3894 25.2317C48.1779 26.2197 47.9487 27.1928 47.7019 28.1509C47.4904 29.1089 47.2612 29.9772 47.0144 30.7557C46.8029 31.5042 46.5913 32.118 46.3798 32.597C46.2035 33.0761 46.0625 33.3156 45.9567 33.3156C45.7452 33.3755 45.4984 33.3306 45.2163 33.1809C44.9343 33.0312 44.6522 32.8365 44.3702 32.597C44.0881 32.3276 43.8413 32.0581 43.6298 31.7886C43.4183 31.4892 43.2949 31.2198 43.2596 30.9802C42.8718 28.6748 42.5369 26.6089 42.2548 24.7826C41.9728 22.9262 41.726 21.2945 41.5144 19.8873C41.3381 18.4501 41.1795 17.2076 41.0385 16.1597C40.9327 15.1118 40.8446 14.2136 40.774 13.465C40.5978 11.7285 40.5272 10.5159 40.5625 9.82728C40.6683 9.31829 40.9151 8.80931 41.3029 8.30032C41.6907 7.79133 42.0962 7.34222 42.5192 6.953C42.9776 6.56377 43.4006 6.26436 43.7885 6.05478C44.2115 5.81526 44.4936 5.72544 44.6346 5.78532C44.7051 5.81526 44.7756 6.12963 44.8462 6.72844C44.9167 7.29731 44.9696 8.04582 45.0048 8.97398C45.0753 9.90213 45.1282 10.98 45.1635 12.2075C45.234 13.4052 45.2869 14.6627 45.3221 15.9801C45.3926 17.2675 45.4455 18.5849 45.4808 19.9322C45.5513 21.2496 45.6218 22.4771 45.6923 23.6149C45.8686 22.7466 46.0625 21.6987 46.274 20.4711C46.4856 19.2136 46.6971 17.9861 46.9087 16.7884C47.1202 15.5908 47.3141 14.5279 47.4904 13.5998C47.7019 12.6417 47.8782 12.0279 48.0192 11.7584C48.3013 11.2195 48.6186 10.7405 48.9712 10.3213C49.359 9.90213 49.7292 9.57279 50.0817 9.33326C50.4696 9.0638 50.8045 8.86919 51.0865 8.74942C51.4038 8.62966 51.6154 8.58475 51.7212 8.61469C51.7564 8.61469 51.8093 8.85422 51.8798 9.33326C51.9503 9.81231 52.0385 10.4411 52.1442 11.2195C52.25 11.998 52.3558 12.8962 52.4615 13.9142C52.6026 14.9022 52.7436 15.9351 52.8846 17.013C53.0256 18.0609 53.1667 19.1088 53.3077 20.1567C53.4487 21.2047 53.6074 22.1628 53.7837 23.031C53.8542 21.8334 53.9423 20.4861 54.0481 18.9891C54.1538 17.4621 54.2596 16.01 54.3654 14.6327C54.4712 13.2255 54.5769 11.998 54.6827 10.95C54.7885 9.87219 54.8942 9.19853 55 8.92907C55.1763 8.45002 55.476 8.01588 55.899 7.62666C56.3221 7.20749 56.7628 6.86317 57.2212 6.59371C57.7147 6.2943 58.1554 6.08472 58.5433 5.96496C58.9663 5.8452 59.2484 5.83023 59.3894 5.92005Z" fill="black"/>
<path d="M65.524 21.4142C66.0881 21.2346 66.7228 21.04 67.4279 20.8304C68.1683 20.5909 68.8734 20.3813 69.5433 20.2017C70.2131 19.9921 70.8125 19.8124 71.3413 19.6627C71.8702 19.513 72.258 19.3933 72.5048 19.3034C72.4696 18.9741 72.4167 18.5998 72.3462 18.1807C72.3109 17.7316 72.258 17.3124 72.1875 16.9232C72.117 16.504 72.0288 16.1447 71.9231 15.8453C71.8173 15.5459 71.7115 15.3663 71.6058 15.3064C71.3237 15.2166 70.8478 15.1417 70.1779 15.0818C69.5433 14.992 68.8734 15.007 68.1683 15.1267C67.4984 15.2465 66.8814 15.4711 66.3173 15.8004C65.7532 16.1298 65.4359 16.6537 65.3654 17.3723C65.2949 17.8513 65.2772 18.4501 65.3125 19.1687C65.3478 19.8873 65.4183 20.6358 65.524 21.4142ZM77 22.1328C76.9647 22.1927 76.5417 22.3125 75.7308 22.4921C74.9199 22.6717 73.9503 22.8664 72.8221 23.0759C71.6939 23.2556 70.4952 23.4502 69.226 23.6598C67.9567 23.8394 66.8638 23.9891 65.9471 24.1089C66.1234 25.3065 66.3349 26.3844 66.5817 27.3425C66.8285 28.2706 67.0401 28.8545 67.2163 29.094C67.3926 29.3036 67.6218 29.4982 67.9038 29.6778C68.1506 29.8275 68.4503 29.9772 68.8029 30.1269C69.1907 30.2467 69.649 30.3365 70.1779 30.3964C70.5657 30.4862 70.9359 30.3664 71.2885 30.0371C71.5705 29.7377 71.8173 29.2137 72.0288 28.4652C72.2756 27.7167 72.399 26.5341 72.399 24.9173C73.492 24.7676 74.3381 24.6778 74.9375 24.6478C75.5721 24.6179 76.0304 24.6179 76.3125 24.6478C76.6651 24.6778 76.8766 24.7227 76.9471 24.7826C76.9824 24.8724 76.9824 25.0969 76.9471 25.4562C76.9119 25.8155 76.8237 26.2646 76.6827 26.8035C76.5769 27.3125 76.4359 27.8814 76.2596 28.5101C76.1186 29.1089 75.9423 29.6928 75.7308 30.2617C75.5192 30.8006 75.2901 31.2946 75.0433 31.7437C74.7965 32.1629 74.5321 32.4623 74.25 32.6419C73.4038 33.1809 72.3462 33.4503 71.0769 33.4503C69.8077 33.4204 68.5561 33.2707 67.3221 33.0012C66.0881 32.7018 64.9776 32.3575 63.9904 31.9683C63.0032 31.5491 62.3862 31.2048 62.1394 30.9353C61.9631 30.7557 61.8045 30.3066 61.6635 29.588C61.5224 28.8395 61.399 27.9413 61.2933 26.8934C61.2228 25.8454 61.1699 24.6927 61.1346 23.4352C61.0994 22.1777 61.117 20.9502 61.1875 19.7526C61.2933 18.5549 61.4343 17.4471 61.6106 16.4292C61.8221 15.4112 62.1042 14.5878 62.4567 13.9591C62.9856 13.0609 63.8494 12.3273 65.0481 11.7584C66.2468 11.1896 67.516 10.8003 68.8558 10.5908C70.1955 10.3812 71.4647 10.3512 72.6635 10.5009C73.8974 10.6506 74.8141 10.98 75.4135 11.489C75.766 11.7884 76.0833 12.3872 76.3654 13.2854C76.6474 14.1537 76.8237 15.2166 76.8942 16.4741C76.8942 16.5938 76.9119 16.9381 76.9471 17.507C76.9824 18.0759 77 18.6897 77 19.3484C77.0353 19.9771 77.0529 20.5759 77.0529 21.1448C77.0529 21.7137 77.0353 22.043 77 22.1328Z" fill="black"/>
<path d="M93.1827 10.6357C93.5353 10.8153 93.8878 11.1447 94.2404 11.6237C94.6282 12.0728 94.9631 12.6117 95.2452 13.2405C95.5625 13.8692 95.8093 14.5429 95.9856 15.2615C96.1619 15.9501 96.25 16.6088 96.25 17.2376C96.25 17.6867 96.1795 18.3154 96.0385 19.1238C95.9327 19.9023 95.774 20.7705 95.5625 21.7286C95.351 22.6568 95.1218 23.6298 94.875 24.6478C94.6282 25.6359 94.3814 26.549 94.1346 27.3874C93.9231 28.2257 93.7292 28.9443 93.5529 29.5431C93.3766 30.112 93.2532 30.4563 93.1827 30.576C93.0064 30.9353 92.8478 31.2497 92.7067 31.5192C92.601 31.7587 92.4599 31.9383 92.2837 32.0581C91.8958 32.2976 91.4022 32.4773 90.8029 32.597C90.2035 32.6868 89.5865 32.7467 88.9519 32.7767C88.3173 32.8066 87.7003 32.8066 87.101 32.7767C86.5369 32.7168 86.0962 32.6419 85.7788 32.5521C85.6378 32.5222 85.4792 32.4922 85.3029 32.4623C85.1619 32.4024 85.0032 32.3425 84.8269 32.2826C84.4744 32.7916 84.0689 33.2557 83.6106 33.6749C83.1522 34.0641 82.7292 34.2288 82.3413 34.1689C82.2003 34.139 82.0417 33.6449 81.8654 32.6868C81.7244 31.7287 81.5657 30.4712 81.3894 28.9143C81.2131 27.3275 81.0369 25.5311 80.8606 23.5251C80.6843 21.519 80.5256 19.4681 80.3846 17.3723C80.2436 15.2465 80.1202 13.1656 80.0144 11.1297C79.9087 9.09374 79.8205 7.28234 79.75 5.6955C79.7147 4.07871 79.7147 2.76133 79.75 1.74335C79.7853 0.695436 79.8734 0.126567 80.0144 0.0367451C80.1554 -0.0530763 80.4728 0.0217749 80.9663 0.261299C81.4952 0.470882 82.0593 0.800227 82.6587 1.24933C83.258 1.6685 83.8045 2.17749 84.2981 2.7763C84.8269 3.37511 85.1795 3.98889 85.3558 4.61764C85.4615 5.09669 85.5321 5.92005 85.5673 7.08773C85.6378 8.25541 85.6731 9.63267 85.6731 11.2195C87.2244 10.7105 88.6522 10.3812 89.9567 10.2315C91.2965 10.0818 92.3718 10.2165 93.1827 10.6357ZM90.9087 17.2376C90.9087 16.7585 90.8205 16.2944 90.6442 15.8453C90.4679 15.3663 90.2564 14.9621 90.0096 14.6327C89.7628 14.2734 89.4984 14.004 89.2163 13.8243C88.9343 13.6447 88.6875 13.5848 88.476 13.6447C88.0881 13.7046 87.7179 13.7944 87.3654 13.9142C87.0128 14.004 86.7131 14.0938 86.4663 14.1836C86.149 14.3034 85.8846 14.4082 85.6731 14.498C85.6378 16.2645 85.5849 18.0609 85.5144 19.8873C85.4792 21.7137 85.4615 23.4203 85.4615 25.0071C85.4615 25.7856 85.4792 26.4742 85.5144 27.073C85.5497 27.6419 85.5673 28.0012 85.5673 28.1509C85.6731 28.8694 85.9022 29.3784 86.2548 29.6778C86.3606 29.7377 86.5192 29.8275 86.7308 29.9473C86.9776 30.0371 87.2244 30.1269 87.4712 30.2167C87.7532 30.2766 88.0176 30.3215 88.2644 30.3515C88.5112 30.3515 88.7228 30.2916 88.899 30.1718C88.9343 30.1419 89.0048 29.8126 89.1106 29.1838C89.2516 28.5251 89.3926 27.7317 89.5337 26.8035C89.6747 25.8754 89.8157 24.8724 89.9567 23.7945C90.133 22.6867 90.2917 21.6687 90.4327 20.7406C90.5737 19.7825 90.6795 18.9741 90.75 18.3154C90.8558 17.6567 90.9087 17.2974 90.9087 17.2376Z" fill="black"/>
<path d="M103.231 34.124C102.984 34.1839 102.702 34.109 102.385 33.8994C102.067 33.6898 101.75 33.4353 101.433 33.1359C101.151 32.8066 100.904 32.4623 100.692 32.103C100.481 31.7437 100.34 31.4443 100.269 31.2048C100.022 28.57 99.8109 26.2197 99.6346 24.1538C99.4936 22.058 99.3702 20.2017 99.2644 18.5849C99.1587 16.9681 99.0705 15.5759 99 14.4082C98.9647 13.2106 98.9471 12.1926 98.9471 11.3542C98.9119 9.40811 98.9471 8.06079 99.0529 7.31228C99.1587 6.77335 99.4407 6.23442 99.899 5.6955C100.393 5.15657 100.904 4.69249 101.433 4.30326C101.997 3.91404 102.508 3.61463 102.966 3.40505C103.46 3.19547 103.777 3.13558 103.918 3.22541C104.059 3.31523 104.165 3.82422 104.236 4.75237C104.306 5.65059 104.359 6.83323 104.394 8.30032C104.429 9.7674 104.429 11.4141 104.394 13.2405C104.394 15.0669 104.359 16.9381 104.288 18.8543C104.253 20.7705 104.2 22.6418 104.13 24.4682C104.059 26.2945 103.971 27.9263 103.865 29.3634C103.76 30.7706 103.654 31.9084 103.548 32.7767C103.442 33.6449 103.337 34.094 103.231 34.124Z" fill="black"/>
<path d="M120.471 9.24344C120.577 9.30332 120.665 9.69255 120.736 10.4111C120.806 11.1297 120.859 12.0728 120.894 13.2405C120.965 14.3782 121 15.6806 121 17.1477C121 18.6148 121 20.1268 121 21.6837C121 23.2406 120.982 24.7826 120.947 26.3095C120.947 27.8065 120.912 29.1838 120.841 30.4413C120.806 31.6689 120.753 32.7168 120.683 33.5851C120.647 34.4533 120.595 35.0072 120.524 35.2467C120.454 35.4264 120.242 35.6959 119.889 36.0551C119.572 36.4444 119.184 36.8336 118.726 37.2228C118.268 37.612 117.792 37.9564 117.298 38.2558C116.84 38.5851 116.452 38.7947 116.135 38.8845C115.5 39.0642 114.795 39.0342 114.019 38.7947C113.244 38.5552 112.503 38.2408 111.798 37.8516C111.128 37.4623 110.529 37.0432 110 36.5941C109.506 36.1749 109.207 35.8755 109.101 35.6959C108.995 35.5162 108.889 35.2467 108.784 34.8875C108.713 34.5581 108.66 34.2288 108.625 33.8994C108.59 33.5401 108.59 33.2407 108.625 33.0012C108.696 32.7317 108.819 32.597 108.995 32.597C109.136 32.597 109.506 32.7317 110.106 33.0012C110.74 33.2707 111.41 33.5551 112.115 33.8545C112.821 34.124 113.473 34.3485 114.072 34.5282C114.671 34.7078 115.042 34.6928 115.183 34.4833C115.324 34.2437 115.465 33.6 115.606 32.5521C115.747 31.4742 115.888 30.1718 116.029 28.6449C114.795 29.0042 113.667 29.2437 112.644 29.3634C111.657 29.4533 110.829 29.3036 110.159 28.9143C109.841 28.7347 109.506 28.4203 109.154 27.9712C108.837 27.5221 108.537 27.0131 108.255 26.4442C108.008 25.8454 107.796 25.2167 107.62 24.558C107.444 23.8694 107.356 23.2256 107.356 22.6268C107.356 22.2077 107.409 21.6089 107.514 20.8304C107.655 20.052 107.832 19.1987 108.043 18.2705C108.255 17.3423 108.466 16.3842 108.678 15.3962C108.925 14.4082 109.154 13.51 109.365 12.7016C109.612 11.8932 109.806 11.2195 109.947 10.6806C110.123 10.1117 110.229 9.79734 110.264 9.73746C110.335 9.64764 110.511 9.60273 110.793 9.60273C111.075 9.57279 111.375 9.58776 111.692 9.64764C112.01 9.67758 112.309 9.75243 112.591 9.87219C112.873 9.99195 113.05 10.1267 113.12 10.2764C113.155 10.3962 113.155 10.7704 113.12 11.3992C113.12 12.0279 113.067 12.7764 112.962 13.6447C112.891 14.513 112.803 15.4561 112.697 16.4741C112.627 17.4621 112.538 18.4052 112.433 19.3034C112.362 20.1717 112.292 20.9202 112.221 21.549C112.151 22.1777 112.115 22.552 112.115 22.6717C112.115 23.1508 112.168 23.6149 112.274 24.064C112.415 24.4831 112.574 24.8574 112.75 25.1867C112.962 25.4862 113.173 25.7257 113.385 25.9053C113.596 26.085 113.79 26.1448 113.966 26.085C114.566 25.9951 115.112 25.8754 115.606 25.7257C115.853 25.6359 116.082 25.546 116.293 25.4562C116.399 23.9891 116.505 22.4921 116.611 20.9651C116.716 19.4082 116.804 17.9861 116.875 16.6986C116.946 15.4112 116.998 14.3184 117.034 13.4201C117.104 12.5219 117.139 11.9531 117.139 11.7135C117.139 11.4441 117.28 11.1447 117.562 10.8153C117.845 10.456 118.162 10.1417 118.514 9.87219C118.867 9.60273 119.22 9.40811 119.572 9.28835C119.96 9.13865 120.26 9.12368 120.471 9.24344Z" fill="black"/>
<path fill-rule="evenodd" clip-rule="evenodd" d="M8.46154 5.65059C13.1347 5.65059 16.9231 8.86774 16.9231 12.8363V5.65059H25.3846C30.0578 5.65059 33.8462 8.86774 33.8462 12.8363C33.8462 16.8048 30.0578 20.022 25.3846 20.022C30.0578 20.022 33.8462 23.2392 33.8462 27.2077C33.8462 29.1783 32.9121 30.9636 31.3995 32.2617L31.3679 32.2888L31.3398 32.3125C29.8108 33.5989 27.707 34.3934 25.3846 34.3934C23.0781 34.3934 20.9871 33.6097 19.4607 32.3387C19.4409 32.3222 19.4211 32.3055 19.4014 32.2888C19.3828 32.2731 19.3644 32.2573 19.346 32.2414C17.8474 30.9449 16.9231 29.168 16.9231 27.2077C16.9231 31.1763 13.1347 34.3934 8.46154 34.3934C3.78836 34.3934 0 31.1763 0 27.2077V20.022H8.46154C3.78836 20.022 0 16.8048 0 12.8363C0 8.86774 3.78836 5.65059 8.46154 5.65059ZM15.2308 12.8363C15.2308 16.0112 12.2001 18.5849 8.46154 18.5849V7.08773C12.2001 7.08773 15.2308 9.66145 15.2308 12.8363ZM32.1538 27.2077C32.1538 24.0329 29.1232 21.4592 25.3846 21.4592C21.6461 21.4592 18.6154 24.0329 18.6154 27.2077H32.1538ZM1.69231 21.4592V27.2077C1.69231 30.3826 4.72299 32.9563 8.46154 32.9563C12.2001 32.9563 15.2308 30.3826 15.2308 27.2077V21.4592H1.69231ZM18.6154 18.5849V7.08773H25.3846C29.1232 7.08773 32.1538 9.66145 32.1538 12.8363C32.1538 16.0112 29.1232 18.5849 25.3846 18.5849H18.6154Z" fill="black"/>
</svg>
