<svg width="144" height="144" viewBox="0 0 144 144" fill="none" xmlns="http://www.w3.org/2000/svg">
<path d="M143.5 72C143.5 111.488 111.488 143.5 72 143.5C32.5116 143.5 0.5 111.488 0.5 72C0.5 32.5116 32.5116 0.5 72 0.5C111.488 0.5 143.5 32.5116 143.5 72Z" stroke="#C4C4C4"/>
<path d="M70.3894 58.92C70.4952 59.0099 70.5128 59.4739 70.4423 60.3123C70.4071 61.1506 70.3013 62.2285 70.125 63.5459C69.984 64.8632 69.7901 66.3453 69.5433 67.992C69.2965 69.6387 69.0321 71.3154 68.75 73.022C68.4679 74.6987 68.1683 76.3604 67.851 78.0071C67.5689 79.6239 67.2869 81.061 67.0048 82.3185C66.758 83.576 66.5288 84.594 66.3173 85.3725C66.1058 86.1509 65.9471 86.5401 65.8413 86.5401C65.6298 86.5401 65.383 86.4503 65.101 86.2707C64.8542 86.0611 64.6074 85.8216 64.3606 85.5521C64.149 85.2826 63.9375 85.0132 63.726 84.7437C63.5497 84.4742 63.4439 84.2497 63.4087 84.0701C63.3381 83.7407 63.1619 83.1419 62.8798 82.2736C62.633 81.4053 62.4215 80.3425 62.2452 79.085C62.1042 78.2466 61.9631 77.3484 61.8221 76.3903C61.6811 75.6119 61.5401 74.7286 61.399 73.7406C61.258 72.7525 61.117 71.7795 60.976 70.8214C60.8349 71.4501 60.6763 72.1837 60.5 73.022C60.359 73.8603 60.2003 74.6687 60.024 75.4472C59.8478 76.3454 59.6362 77.2736 59.3894 78.2317C59.1779 79.2197 58.9487 80.1928 58.7019 81.1509C58.4904 82.1089 58.2612 82.9772 58.0144 83.7557C57.8029 84.5042 57.5913 85.118 57.3798 85.597C57.2035 86.0761 57.0625 86.3156 56.9567 86.3156C56.7452 86.3755 56.4984 86.3306 56.2163 86.1809C55.9343 86.0312 55.6522 85.8365 55.3702 85.597C55.0881 85.3276 54.8413 85.0581 54.6298 84.7886C54.4183 84.4892 54.2949 84.2198 54.2596 83.9802C53.8718 81.6748 53.5369 79.6089 53.2548 77.7826C52.9728 75.9262 52.726 74.2945 52.5144 72.8873C52.3381 71.4501 52.1795 70.2076 52.0385 69.1597C51.9327 68.1118 51.8446 67.2136 51.774 66.465C51.5978 64.7285 51.5272 63.5159 51.5625 62.8273C51.6683 62.3183 51.9151 61.8093 52.3029 61.3003C52.6907 60.7913 53.0962 60.3422 53.5192 59.953C53.9776 59.5638 54.4006 59.2644 54.7885 59.0548C55.2115 58.8153 55.4936 58.7254 55.6346 58.7853C55.7051 58.8153 55.7756 59.1296 55.8462 59.7284C55.9167 60.2973 55.9696 61.0458 56.0048 61.974C56.0753 62.9021 56.1282 63.98 56.1635 65.2075C56.234 66.4052 56.2869 67.6627 56.3221 68.9801C56.3926 70.2675 56.4455 71.5849 56.4808 72.9322C56.5513 74.2496 56.6218 75.4771 56.6923 76.6149C56.8686 75.7466 57.0625 74.6987 57.274 73.4711C57.4856 72.2136 57.6971 70.9861 57.9087 69.7884C58.1202 68.5908 58.3141 67.5279 58.4904 66.5998C58.7019 65.6417 58.8782 65.0279 59.0192 64.7584C59.3013 64.2195 59.6186 63.7405 59.9712 63.3213C60.359 62.9021 60.7292 62.5728 61.0817 62.3333C61.4696 62.0638 61.8045 61.8692 62.0865 61.7494C62.4038 61.6297 62.6154 61.5848 62.7212 61.6147C62.7564 61.6147 62.8093 61.8542 62.8798 62.3333C62.9503 62.8123 63.0385 63.4411 63.1442 64.2195C63.25 64.998 63.3558 65.8962 63.4615 66.9142C63.6026 67.9022 63.7436 68.9351 63.8846 70.013C64.0256 71.0609 64.1667 72.1088 64.3077 73.1567C64.4487 74.2047 64.6074 75.1628 64.7837 76.031C64.8542 74.8334 64.9423 73.4861 65.0481 71.9891C65.1538 70.4621 65.2596 69.01 65.3654 67.6327C65.4712 66.2255 65.5769 64.998 65.6827 63.95C65.7885 62.8722 65.8942 62.1985 66 61.9291C66.1763 61.45 66.476 61.0159 66.899 60.6267C67.3221 60.2075 67.7628 59.8632 68.2212 59.5937C68.7147 59.2943 69.1554 59.0847 69.5433 58.965C69.9663 58.8452 70.2484 58.8302 70.3894 58.92Z" fill="#C4C4C4"/>
<path d="M76.524 74.4142C77.0881 74.2346 77.7228 74.04 78.4279 73.8304C79.1683 73.5909 79.8734 73.3813 80.5433 73.2017C81.2131 72.9921 81.8125 72.8124 82.3413 72.6627C82.8702 72.513 83.258 72.3933 83.5048 72.3034C83.4696 71.9741 83.4167 71.5998 83.3462 71.1807C83.3109 70.7316 83.258 70.3124 83.1875 69.9232C83.117 69.504 83.0288 69.1447 82.9231 68.8453C82.8173 68.5459 82.7115 68.3663 82.6058 68.3064C82.3237 68.2166 81.8478 68.1417 81.1779 68.0818C80.5433 67.992 79.8734 68.007 79.1683 68.1267C78.4984 68.2465 77.8814 68.4711 77.3173 68.8004C76.7532 69.1298 76.4359 69.6537 76.3654 70.3723C76.2949 70.8513 76.2772 71.4501 76.3125 72.1687C76.3478 72.8873 76.4183 73.6358 76.524 74.4142ZM88 75.1328C87.9647 75.1927 87.5417 75.3125 86.7308 75.4921C85.9199 75.6717 84.9503 75.8664 83.8221 76.0759C82.6939 76.2556 81.4952 76.4502 80.226 76.6598C78.9567 76.8394 77.8638 76.9891 76.9471 77.1089C77.1234 78.3065 77.3349 79.3844 77.5817 80.3425C77.8285 81.2706 78.0401 81.8545 78.2163 82.094C78.3926 82.3036 78.6218 82.4982 78.9038 82.6778C79.1506 82.8275 79.4503 82.9772 79.8029 83.1269C80.1907 83.2467 80.649 83.3365 81.1779 83.3964C81.5657 83.4862 81.9359 83.3664 82.2885 83.0371C82.5705 82.7377 82.8173 82.2137 83.0288 81.4652C83.2756 80.7167 83.399 79.5341 83.399 77.9173C84.492 77.7676 85.3381 77.6778 85.9375 77.6478C86.5721 77.6179 87.0304 77.6179 87.3125 77.6478C87.6651 77.6778 87.8766 77.7227 87.9471 77.7826C87.9824 77.8724 87.9824 78.0969 87.9471 78.4562C87.9119 78.8155 87.8237 79.2646 87.6827 79.8035C87.5769 80.3125 87.4359 80.8814 87.2596 81.5101C87.1186 82.1089 86.9423 82.6928 86.7308 83.2617C86.5192 83.8006 86.2901 84.2946 86.0433 84.7437C85.7965 85.1629 85.5321 85.4623 85.25 85.6419C84.4038 86.1809 83.3462 86.4503 82.0769 86.4503C80.8077 86.4204 79.5561 86.2707 78.3221 86.0012C77.0881 85.7018 75.9776 85.3575 74.9904 84.9683C74.0032 84.5491 73.3862 84.2048 73.1394 83.9353C72.9631 83.7557 72.8045 83.3066 72.6635 82.588C72.5224 81.8395 72.399 80.9413 72.2933 79.8934C72.2228 78.8454 72.1699 77.6927 72.1346 76.4352C72.0994 75.1777 72.117 73.9502 72.1875 72.7526C72.2933 71.5549 72.4343 70.4471 72.6106 69.4292C72.8221 68.4112 73.1042 67.5878 73.4567 66.9591C73.9856 66.0609 74.8494 65.3273 76.0481 64.7584C77.2468 64.1896 78.516 63.8003 79.8558 63.5908C81.1955 63.3812 82.4647 63.3512 83.6635 63.5009C84.8974 63.6506 85.8141 63.98 86.4135 64.489C86.766 64.7884 87.0833 65.3872 87.3654 66.2854C87.6474 67.1537 87.8237 68.2166 87.8942 69.4741C87.8942 69.5938 87.9119 69.9381 87.9471 70.507C87.9824 71.0759 88 71.6897 88 72.3484C88.0353 72.9771 88.0529 73.5759 88.0529 74.1448C88.0529 74.7137 88.0353 75.043 88 75.1328Z" fill="#C4C4C4"/>
<path d="M104.183 63.6357C104.535 63.8153 104.888 64.1447 105.24 64.6237C105.628 65.0728 105.963 65.6117 106.245 66.2405C106.563 66.8692 106.809 67.5429 106.986 68.2615C107.162 68.9501 107.25 69.6088 107.25 70.2376C107.25 70.6867 107.179 71.3154 107.038 72.1238C106.933 72.9023 106.774 73.7705 106.562 74.7286C106.351 75.6568 106.122 76.6298 105.875 77.6478C105.628 78.6359 105.381 79.549 105.135 80.3874C104.923 81.2257 104.729 81.9443 104.553 82.5431C104.377 83.112 104.253 83.4563 104.183 83.576C104.006 83.9353 103.848 84.2497 103.707 84.5192C103.601 84.7587 103.46 84.9383 103.284 85.0581C102.896 85.2976 102.402 85.4773 101.803 85.597C101.204 85.6868 100.587 85.7467 99.9519 85.7767C99.3173 85.8066 98.7003 85.8066 98.101 85.7767C97.5369 85.7168 97.0962 85.6419 96.7788 85.5521C96.6378 85.5222 96.4792 85.4922 96.3029 85.4623C96.1619 85.4024 96.0032 85.3425 95.8269 85.2826C95.4744 85.7916 95.0689 86.2557 94.6106 86.6749C94.1522 87.0641 93.7292 87.2288 93.3413 87.1689C93.2003 87.139 93.0417 86.6449 92.8654 85.6868C92.7244 84.7287 92.5657 83.4712 92.3894 81.9143C92.2131 80.3275 92.0369 78.5311 91.8606 76.5251C91.6843 74.519 91.5256 72.4681 91.3846 70.3723C91.2436 68.2465 91.1202 66.1656 91.0144 64.1297C90.9087 62.0937 90.8205 60.2823 90.75 58.6955C90.7147 57.0787 90.7147 55.7613 90.75 54.7434C90.7853 53.6954 90.8734 53.1266 91.0144 53.0367C91.1555 52.9469 91.4728 53.0218 91.9663 53.2613C92.4952 53.4709 93.0593 53.8002 93.6587 54.2493C94.258 54.6685 94.8045 55.1775 95.2981 55.7763C95.8269 56.3751 96.1795 56.9889 96.3558 57.6176C96.4615 58.0967 96.5321 58.92 96.5673 60.0877C96.6378 61.2554 96.6731 62.6327 96.6731 64.2195C98.2244 63.7105 99.6522 63.3812 100.957 63.2315C102.296 63.0818 103.372 63.2165 104.183 63.6357ZM101.909 70.2376C101.909 69.7585 101.821 69.2944 101.644 68.8453C101.468 68.3663 101.256 67.9621 101.01 67.6327C100.763 67.2734 100.498 67.004 100.216 66.8243C99.9343 66.6447 99.6875 66.5848 99.476 66.6447C99.0881 66.7046 98.718 66.7944 98.3654 66.9142C98.0128 67.004 97.7131 67.0938 97.4663 67.1836C97.149 67.3034 96.8846 67.4082 96.6731 67.498C96.6378 69.2645 96.5849 71.0609 96.5144 72.8873C96.4792 74.7137 96.4615 76.4203 96.4615 78.0071C96.4615 78.7856 96.4792 79.4742 96.5144 80.073C96.5497 80.6419 96.5673 81.0012 96.5673 81.1509C96.6731 81.8694 96.9022 82.3784 97.2548 82.6778C97.3606 82.7377 97.5192 82.8275 97.7308 82.9473C97.9776 83.0371 98.2244 83.1269 98.4712 83.2167C98.7532 83.2766 99.0176 83.3215 99.2644 83.3515C99.5112 83.3515 99.7228 83.2916 99.899 83.1718C99.9343 83.1419 100.005 82.8126 100.111 82.1838C100.252 81.5251 100.393 80.7317 100.534 79.8035C100.675 78.8754 100.816 77.8724 100.957 76.7945C101.133 75.6867 101.292 74.6687 101.433 73.7406C101.574 72.7825 101.679 71.9741 101.75 71.3154C101.856 70.6567 101.909 70.2974 101.909 70.2376Z" fill="#C4C4C4"/>
<path d="M114.231 87.124C113.984 87.1839 113.702 87.109 113.385 86.8994C113.067 86.6898 112.75 86.4353 112.433 86.1359C112.151 85.8066 111.904 85.4623 111.692 85.103C111.481 84.7437 111.34 84.4443 111.269 84.2048C111.022 81.57 110.811 79.2197 110.635 77.1538C110.494 75.058 110.37 73.2017 110.264 71.5849C110.159 69.9681 110.071 68.5759 110 67.4082C109.965 66.2106 109.947 65.1926 109.947 64.3542C109.912 62.4081 109.947 61.0608 110.053 60.3123C110.159 59.7734 110.441 59.2344 110.899 58.6955C111.393 58.1566 111.904 57.6925 112.433 57.3033C112.997 56.914 113.508 56.6146 113.966 56.405C114.46 56.1955 114.777 56.1356 114.918 56.2254C115.059 56.3152 115.165 56.8242 115.236 57.7524C115.306 58.6506 115.359 59.8332 115.394 61.3003C115.429 62.7674 115.429 64.4141 115.394 66.2405C115.394 68.0669 115.359 69.9381 115.288 71.8543C115.253 73.7705 115.2 75.6418 115.13 77.4682C115.059 79.2945 114.971 80.9263 114.865 82.3634C114.76 83.7706 114.654 84.9084 114.548 85.7767C114.442 86.6449 114.337 87.094 114.231 87.124Z" fill="#C4C4C4"/>
<path d="M131.471 62.2434C131.577 62.3033 131.665 62.6925 131.736 63.4111C131.806 64.1297 131.859 65.0728 131.894 66.2405C131.965 67.3782 132 68.6806 132 70.1477C132 71.6148 132 73.1268 132 74.6837C132 76.2406 131.982 77.7826 131.947 79.3095C131.947 80.8065 131.912 82.1838 131.841 83.4413C131.806 84.6689 131.753 85.7168 131.683 86.5851C131.647 87.4533 131.595 88.0072 131.524 88.2467C131.454 88.4264 131.242 88.6959 130.889 89.0551C130.572 89.4444 130.184 89.8336 129.726 90.2228C129.268 90.612 128.792 90.9564 128.298 91.2558C127.84 91.5851 127.452 91.7947 127.135 91.8845C126.5 92.0642 125.795 92.0342 125.019 91.7947C124.244 91.5552 123.503 91.2408 122.798 90.8516C122.128 90.4623 121.529 90.0432 121 89.5941C120.506 89.1749 120.207 88.8755 120.101 88.6959C119.995 88.5162 119.889 88.2467 119.784 87.8875C119.713 87.5581 119.66 87.2288 119.625 86.8994C119.59 86.5401 119.59 86.2407 119.625 86.0012C119.696 85.7317 119.819 85.597 119.995 85.597C120.136 85.597 120.506 85.7317 121.106 86.0012C121.74 86.2707 122.41 86.5551 123.115 86.8545C123.821 87.124 124.473 87.3485 125.072 87.5282C125.671 87.7078 126.042 87.6928 126.183 87.4833C126.324 87.2437 126.465 86.6 126.606 85.5521C126.747 84.4742 126.888 83.1718 127.029 81.6449C125.795 82.0042 124.667 82.2437 123.644 82.3634C122.657 82.4533 121.829 82.3036 121.159 81.9143C120.841 81.7347 120.506 81.4203 120.154 80.9712C119.837 80.5221 119.537 80.0131 119.255 79.4442C119.008 78.8454 118.796 78.2167 118.62 77.558C118.444 76.8694 118.356 76.2256 118.356 75.6268C118.356 75.2077 118.409 74.6089 118.514 73.8304C118.655 73.052 118.832 72.1987 119.043 71.2705C119.255 70.3423 119.466 69.3842 119.678 68.3962C119.925 67.4082 120.154 66.51 120.365 65.7016C120.612 64.8932 120.806 64.2195 120.947 63.6806C121.123 63.1117 121.229 62.7973 121.264 62.7375C121.335 62.6476 121.511 62.6027 121.793 62.6027C122.075 62.5728 122.375 62.5878 122.692 62.6476C123.01 62.6776 123.309 62.7524 123.591 62.8722C123.873 62.992 124.05 63.1267 124.12 63.2764C124.155 63.3962 124.155 63.7704 124.12 64.3992C124.12 65.0279 124.067 65.7764 123.962 66.6447C123.891 67.513 123.803 68.4561 123.697 69.4741C123.627 70.4621 123.538 71.4052 123.433 72.3034C123.362 73.1717 123.292 73.9202 123.221 74.549C123.151 75.1777 123.115 75.552 123.115 75.6717C123.115 76.1508 123.168 76.6149 123.274 77.064C123.415 77.4831 123.574 77.8574 123.75 78.1867C123.962 78.4862 124.173 78.7257 124.385 78.9053C124.596 79.085 124.79 79.1448 124.966 79.085C125.566 78.9951 126.112 78.8754 126.606 78.7257C126.853 78.6359 127.082 78.546 127.293 78.4562C127.399 76.9891 127.505 75.4921 127.611 73.9651C127.716 72.4082 127.804 70.9861 127.875 69.6986C127.946 68.4112 127.998 67.3184 128.034 66.4201C128.104 65.5219 128.139 64.9531 128.139 64.7135C128.139 64.4441 128.28 64.1447 128.562 63.8153C128.845 63.456 129.162 63.1417 129.514 62.8722C129.867 62.6027 130.22 62.4081 130.572 62.2884C130.96 62.1387 131.26 62.1237 131.471 62.2434Z" fill="#C4C4C4"/>
<path fill-rule="evenodd" clip-rule="evenodd" d="M19.4615 58.6506C24.1347 58.6506 27.9231 61.8677 27.9231 65.8363V58.6506H36.3846C41.0578 58.6506 44.8462 61.8677 44.8462 65.8363C44.8462 69.8048 41.0578 73.022 36.3846 73.022C41.0578 73.022 44.8462 76.2392 44.8462 80.2077C44.8462 82.1783 43.9121 83.9636 42.3995 85.2617L42.3679 85.2888L42.3398 85.3125C40.8108 86.5989 38.707 87.3934 36.3846 87.3934C34.0781 87.3934 31.9871 86.6097 30.4607 85.3387C30.4409 85.3222 30.4211 85.3055 30.4014 85.2888C30.3828 85.2731 30.3644 85.2573 30.346 85.2414C28.8474 83.9449 27.9231 82.168 27.9231 80.2077C27.9231 84.1763 24.1347 87.3934 19.4615 87.3934C14.7884 87.3934 11 84.1763 11 80.2077V73.022H19.4615C14.7884 73.022 11 69.8048 11 65.8363C11 61.8677 14.7884 58.6506 19.4615 58.6506ZM26.2308 65.8363C26.2308 69.0112 23.2001 71.5849 19.4615 71.5849V60.0877C23.2001 60.0877 26.2308 62.6614 26.2308 65.8363ZM43.1538 80.2077C43.1538 77.0329 40.1232 74.4592 36.3846 74.4592C32.6461 74.4592 29.6154 77.0329 29.6154 80.2077H43.1538ZM12.6923 74.4592V80.2077C12.6923 83.3826 15.723 85.9563 19.4615 85.9563C23.2001 85.9563 26.2308 83.3826 26.2308 80.2077V74.4592H12.6923ZM29.6154 71.5849V60.0877H36.3846C40.1232 60.0877 43.1538 62.6614 43.1538 65.8363C43.1538 69.0112 40.1232 71.5849 36.3846 71.5849H29.6154Z" fill="#C4C4C4"/>
</svg>
