<svg width="701" height="900" viewBox="0 0 701 900" fill="none" xmlns="http://www.w3.org/2000/svg">
<g clip-path="url(#clip0_1_139)">
<path d="M-52 0H757V948H-52V0Z" fill="#D6E5F4"/>
<path d="M677.152 511.087C683.779 502.472 689.727 492.874 695.433 483.411C699.51 489.555 703.004 496.384 706.547 502.961C707.94 505.547 709.73 508.265 710.874 510.99L710.475 511.139C699.457 510.48 688.199 511.077 677.152 511.087Z" fill="#D6E5F4"/>
<path d="M428.878 466.841C433.66 470.151 443.974 483.141 448.467 488.191C446.658 489.338 444.916 490.624 443.159 491.876C440.3 494.072 437.606 496.494 434.893 498.926C433.191 488.113 431.107 477.517 428.878 466.841Z" fill="white"/>
<path d="M501.455 648.457C504.294 652.594 506.499 657.843 508.811 662.429C512.95 670.57 517.032 678.749 521.057 686.968L517.796 689.922C515.862 691.432 513.876 692.832 511.887 694.238C504.99 680.611 502.823 664.004 501.455 648.457Z" fill="white"/>
<path d="M701 599.303C702.978 590.442 704.304 581.362 705.855 572.386C707.959 560.788 709.914 549.156 711.72 537.49C711.952 538.42 712.243 538.786 712.806 539.445C719.599 547.414 729.414 573.795 732.784 585.034C733.541 587.557 735.328 596.946 736.401 598.552C736.677 598.965 737.095 599.215 737.441 599.545C733.327 598.97 728.887 599.317 724.74 599.33C716.827 599.401 708.913 599.391 701 599.303Z" fill="#D6E5F4"/>
<path d="M662.144 769.704L720.005 769.77C717.225 773.325 715.549 777.998 713.348 782.044C708.382 791.177 696.47 811.247 689.154 817.713C680.09 801.791 670.785 785.944 662.144 769.704Z" fill="#D6E5F4"/>
<path d="M-15.5 769.718C3.15958 770.034 21.8277 769.627 40.4883 769.81C36.9969 782.951 33.3477 796.031 29.5407 809.051C27.8722 814.915 25.5111 821.345 24.5259 827.397C17.4212 821.624 7.75477 807.622 2.2768 799.225C-1.30619 793.733 -4.92575 788.11 -8.08006 782.265C-10.0552 778.604 -11.7186 774.473 -13.9253 771.015C-14.3907 770.286 -14.7926 770.033 -15.5 769.718Z" fill="#D6E5F4"/>
<path d="M246.466 405.997C251.071 410.692 255.172 417.942 259.049 423.539C267.134 435.214 275.408 446.825 283.185 458.78L247.622 458.726L210.2 458.725C222.908 441.914 234.647 423.697 246.466 405.997Z" fill="#A2B4DC"/>
<path d="M294.844 397.551C298.783 401.396 303.281 408.896 306.705 413.635L338.779 458.821C330.447 459.277 322.032 459.043 313.689 459.08C304.684 459.192 295.61 459.338 286.611 458.963C280.636 451.895 275.476 443.173 270.119 435.404C278.086 422.54 286.328 409.922 294.844 397.551Z" fill="#343D95"/>
<path d="M208.713 518.458L342.669 518.383C342.671 524.825 343.002 531.487 342.551 537.898C297.94 537.672 253.329 537.768 208.718 538.187L208.713 518.458Z" fill="#343D95"/>
<path d="M436.304 470.058C445.13 469.372 454.218 469.84 463.071 469.84L512.619 469.854L512.527 566.776L508.635 567.283C504.824 568.311 501.463 569.789 497.932 571.762C488.958 554.416 480.162 536.948 471.544 519.356C467.342 510.774 461.909 497.529 456.629 490.174C455.108 488.054 453.462 487.845 451.464 486.676C448.938 485.197 437.277 473.032 436.304 470.058Z" fill="#A2B4DC"/>
<path d="M428.832 610.313C446.343 609.924 464.004 611.014 481.483 610.192C480.671 610.71 479.878 611.266 479.104 611.859C471.937 617.387 468.145 625.844 466.495 635.49L261.072 635.217L207.36 635.394C208.082 627.119 208.476 618.911 208.662 610.594L428.832 610.313Z" fill="#343D95"/>
<path d="M450.277 490.159C450.838 490.048 450.708 490.053 451.406 490.041C452.817 490.016 453.882 490.836 454.808 492.004C458.788 497.02 462.049 505.667 465.045 511.669L487.032 555.716L536.75 654.467L554.375 688.964C557.391 694.836 560.665 700.64 563.441 706.667C564.973 709.993 566.422 713.37 566.212 717.229C565.988 721.345 564.403 724.977 561.707 727.628C558.371 730.91 554.907 731.6 550.698 731.059C548.786 730.34 546.97 729.474 545.393 727.99C541.696 724.511 530.794 700.346 527.498 693.896C503.651 647.408 480.237 600.621 457.258 553.535C450.404 539.449 442.95 525.63 436.402 511.359C435.4 509.176 434.429 506.9 434.226 504.404C435.576 500.288 446.647 492.354 450.277 490.159Z" fill="#F28A20"/>
<path d="M208.696 540.808L342.779 540.576C342.712 557.53 342.719 574.484 342.802 591.438C327.897 591.042 312.903 591.447 297.99 591.467L208.536 591.671L208.696 540.808Z" fill="#343D95"/>
<path d="M342.559 460.604C343.403 465.416 342.717 472.093 342.71 477.09L342.638 515.689L208.575 515.714L208.545 507.261C208.474 498.526 208.027 490.12 206.022 481.661C204.115 473.616 200.912 470.663 201.122 461.62C211.759 461.227 222.509 461.633 233.157 461.639L303.123 461.799L327.053 461.82C331.189 461.82 335.457 462.067 339.58 461.717C340.815 461.612 341.531 461.42 342.559 460.604Z" fill="#343D95"/>
<path d="M333.731 366.378L342.857 366.331C342.289 387.481 342.678 408.789 342.658 429.958C342.65 437.713 342.963 445.645 342.616 453.381C342.546 454.942 342.441 456.323 341.82 457.717C338.7 457.829 302.66 400.887 295 393.536C294.894 393.434 294.786 393.338 294.679 393.239C285.949 406.455 276.854 419.456 268.758 433.223C264.292 426.769 259.793 420.346 255.26 413.957C252.888 410.577 250.621 406.793 248.007 403.677C247.256 402.782 247.185 402.357 246.09 402.353L245.081 403.554C232.656 422.363 219.913 440.872 206.852 459.08L201.178 459.039L201.22 366.508C217.579 366.13 234.001 366.513 250.368 366.542L333.731 366.378Z" fill="#343D95"/>
<path d="M358.099 465.162C380.715 464.98 403.331 464.951 425.946 465.076C427.972 474.497 429.714 483.99 431.172 493.554C431.665 496.884 430.101 500.263 430.846 503.291C432.297 509.185 437.41 516.433 440.143 522L472.036 586.54C467.938 586.932 463.626 586.646 459.505 586.649L435.609 586.673L358.2 586.648C357.857 572.293 358.065 557.86 358.04 543.497L358.099 465.162Z" fill="#A2B4DC"/>
<path d="M92.2098 405.038C109.957 405.011 127.715 404.831 145.461 405.057C145.438 415.426 145.685 425.904 145.186 436.254C141.74 442.447 137.747 448.197 134.038 454.173C126.668 466.201 119.208 478.153 111.66 490.029C106.114 498.863 100.2 507.76 95.8297 517.478C93.1088 523.528 91.0642 530.167 90.207 536.949C88.7123 548.775 90.0996 561.429 90.7545 573.301C91.2309 581.925 91.4521 590.657 92.1616 599.253C51.4912 599.146 10.744 598.658 -29.9201 599.291C-28.538 596.428 -27.7001 592.645 -26.6837 589.55C-24.7328 583.609 -22.6473 577.767 -20.216 572.072C-18.841 568.835 -17.3926 565.643 -15.8708 562.498C-14.3489 559.353 -12.7558 556.258 -11.0915 553.214C-9.42711 550.169 -7.69395 547.179 -5.89198 544.245C-4.09 541.309 -2.22182 538.433 -0.287436 535.616C1.64695 532.799 3.64469 530.046 5.7058 527.355C7.76696 524.664 9.8885 522.041 12.0704 519.484C14.2523 516.927 16.4914 514.442 18.7878 512.026C21.0842 509.611 23.4344 507.271 25.8385 505.004C30.1261 500.903 34.7163 497.191 39.1484 493.304C59.454 475.499 77.2741 450.715 87.1662 423.288C89.3246 417.305 91.4237 411.513 92.2098 405.038Z" fill="#D6E5F4"/>
<path d="M-16.4118 767.305C-19.7056 759.67 -23.291 752.206 -26.1328 744.315C-26.9532 742.098 -27.7383 739.863 -28.4882 737.612C-29.2381 735.361 -29.9521 733.094 -30.6303 730.812C-31.3085 728.529 -31.9505 726.233 -32.5562 723.923C-33.1619 721.613 -33.7309 719.291 -34.2631 716.956C-34.7955 714.622 -35.2907 712.276 -35.7489 709.92C-36.2071 707.563 -36.6279 705.198 -37.0114 702.824C-37.3949 700.449 -37.7407 698.066 -38.0489 695.676C-38.3571 693.287 -38.6275 690.892 -38.86 688.491C-39.0925 686.09 -39.287 683.684 -39.4435 681.274C-39.6 678.865 -39.7185 676.452 -39.7988 674.037C-39.8791 671.622 -39.9212 669.206 -39.9252 666.79C-39.9292 664.373 -39.895 661.957 -39.8227 659.542C-39.7503 657.127 -39.6398 654.714 -39.4912 652.304C-39.3427 649.894 -39.156 647.487 -38.9314 645.084C-38.7068 642.682 -38.4444 640.286 -38.144 637.895C-37.8437 635.504 -37.5057 633.12 -37.13 630.744C-36.1992 625.048 -35.2426 619.324 -33.8823 613.742C-33.046 610.311 -31.5842 606.583 -31.0539 603.119C-30.9503 602.443 -31.0333 601.931 -31.1229 601.263C-30.6959 601.557 -30.3758 601.8 -29.8756 601.888C-26.8689 602.415 -23.1688 601.911 -20.1038 601.912L2.68642 601.917C32.5105 601.92 62.4822 601.217 92.2927 602.008C93.1776 616.632 93.9695 631.263 94.6684 645.902C94.9947 652.606 95.9182 659.946 95.3992 666.612C94.7387 675.1 91.6149 684.111 89.5063 692.297C86.117 705.456 82.9584 718.803 78.8826 731.7C68.0693 731.916 58.6963 735.801 51.0819 745.081C45.8787 751.421 43.4667 758.971 41.3004 767.246L5.13136 767.14C-2.02348 767.131 -9.26774 766.855 -16.4118 767.305Z" fill="#A2B4DC"/>
<path d="M509.893 569.929C510.324 569.873 510.757 569.815 511.19 569.778C512.448 569.666 513.708 569.617 514.97 569.628C516.232 569.639 517.492 569.712 518.749 569.846C520.005 569.981 521.255 570.176 522.498 570.431C523.741 570.687 524.973 571.003 526.194 571.379C536.626 574.478 546.828 580.267 556.825 584.971C566.316 589.437 576.343 593.429 585.468 598.829C587.054 599.757 588.584 600.796 590.059 601.947C591.534 603.098 592.943 604.351 594.285 605.706C600.547 612.013 605.948 620.453 608.614 629.671C611.728 640.44 611.802 657.052 612.688 668.677C614.276 689.502 615.971 710.346 617.282 731.199C611.821 731.928 606.773 733.382 601.882 736.389C596.519 739.687 591.933 744.93 586.875 748.859L548.39 778.551C539.976 785.015 530.786 790.828 523.555 799.089C517.979 792.187 512.816 784.592 507.532 777.373C498.848 765.508 487.067 750.742 480.833 737.151C476.741 728.229 474.476 719.066 472.608 709.248C469.211 689.105 464.265 646.455 470.785 627.704C473.198 620.762 477.626 615.138 483.526 612.172C487.503 619.387 496.478 635.914 498.589 643.468C499.54 646.873 499.277 651.575 499.712 655.238C501.486 670.179 504.105 684.551 510.919 697.565C515.046 695.507 518.606 692.288 522.237 689.259C526.667 697.529 530.706 706.16 534.929 714.585C537.292 719.3 539.551 724.741 542.783 728.745C543.211 729.285 543.668 729.79 544.152 730.26C544.637 730.729 545.147 731.159 545.68 731.55C546.214 731.94 546.767 732.288 547.339 732.593C547.912 732.898 548.499 733.157 549.101 733.371C552.859 734.678 557.103 734.055 560.539 731.874C560.769 731.729 560.995 731.578 561.219 731.421C561.442 731.263 561.662 731.098 561.878 730.927C562.094 730.757 562.306 730.58 562.514 730.396C562.723 730.213 562.927 730.023 563.128 729.827C563.328 729.631 563.524 729.429 563.715 729.222C563.907 729.015 564.094 728.802 564.276 728.583C564.458 728.365 564.636 728.141 564.808 727.911C564.98 727.682 565.147 727.448 565.31 727.209C565.472 726.969 565.629 726.725 565.78 726.477C565.932 726.228 566.078 725.975 566.219 725.718C566.36 725.461 566.495 725.199 566.624 724.934C566.753 724.669 566.877 724.399 566.994 724.127C567.112 723.854 567.224 723.578 567.329 723.298C567.434 723.018 567.534 722.736 567.627 722.451C567.72 722.166 567.807 721.878 567.888 721.587C567.969 721.296 568.043 721.004 568.111 720.709C569.046 716.653 568.69 712.563 567.3 708.722C565.53 703.833 562.607 699.318 560.259 694.771L544.216 663.702C529.016 634.079 514.302 604.036 499.379 574.216C502.795 571.985 506.057 570.759 509.893 569.929Z" fill="white"/>
<path d="M738.165 601.625C738.165 601.863 738.165 602.1 738.165 602.337C738.221 607.958 741.586 621.2 742.598 627.587C746.311 651.102 746.105 673.677 742.906 697.259C740.543 714.734 735.322 731.131 729.526 747.386C728.156 751.231 721.381 764.589 721.379 767.176C716.223 766.301 709.407 767.147 704.074 767.15L660.757 767.187C655.941 760.046 652.762 751.344 647.415 744.698C640.044 735.534 630.478 731.102 619.869 730.769C616.838 700.717 616.242 670.273 613.053 640.267C611.376 624.482 604.974 611.753 594.254 601.978L704.131 601.787C711.37 601.706 718.618 601.863 725.857 601.912C729.883 601.94 734.183 602.289 738.165 601.625Z" fill="#A2B4DC"/>
<path d="M554.383 909.363C547.505 895.878 540.157 882.599 532.825 869.445C527.239 859.422 518.972 847.273 515.779 836.183C515.559 835.403 515.363 834.615 515.191 833.818C515.02 833.021 514.873 832.218 514.751 831.409C514.628 830.6 514.53 829.787 514.457 828.97C514.385 828.152 514.337 827.333 514.315 826.512C514.293 825.69 514.295 824.869 514.323 824.048C514.35 823.227 514.403 822.408 514.481 821.591C514.559 820.775 514.662 819.962 514.79 819.155C514.917 818.346 515.07 817.544 515.247 816.749C516.425 811.345 519.156 804.929 522.613 801.048C528.119 794.868 535.188 790.291 541.587 785.472C549.387 779.572 557.162 773.626 564.911 767.634C571.966 762.145 579.206 756.891 586.152 751.229C590.337 747.818 594.304 743.711 598.713 740.722C599.209 740.388 599.712 740.068 600.221 739.762C600.731 739.457 601.246 739.166 601.768 738.889C602.289 738.613 602.816 738.352 603.349 738.106C603.881 737.86 604.418 737.629 604.96 737.414C605.502 737.198 606.049 736.999 606.599 736.815C607.149 736.63 607.703 736.462 608.26 736.309C608.818 736.157 609.378 736.02 609.942 735.9C610.505 735.779 611.07 735.674 611.637 735.586C612.204 735.498 612.773 735.426 613.343 735.37C613.914 735.314 614.485 735.275 615.057 735.252C615.629 735.228 616.201 735.221 616.774 735.231C617.346 735.24 617.918 735.266 618.489 735.308C619.06 735.35 619.631 735.409 620.199 735.484C620.768 735.559 621.335 735.65 621.9 735.756C622.465 735.864 623.027 735.987 623.587 736.126C624.147 736.265 624.704 736.421 625.257 736.592C626.047 736.842 626.829 737.124 627.601 737.439C628.374 737.753 629.137 738.098 629.89 738.475C630.643 738.85 631.384 739.257 632.112 739.693C632.841 740.129 633.556 740.594 634.257 741.088C634.958 741.582 635.644 742.105 636.315 742.654C636.985 743.204 637.638 743.781 638.275 744.384C638.911 744.987 639.529 745.615 640.128 746.268C640.727 746.921 641.306 747.597 641.865 748.297C646.023 753.588 649.329 760.53 652.683 766.556L667.529 792.974L696.682 844.6C708.78 866.299 720.784 888.202 733.506 909.405C727.038 908.528 720.095 909.084 713.554 908.924C694.209 908.634 674.863 908.537 655.517 908.633L583.051 908.686C577.598 908.701 558.632 907.864 554.383 909.363Z" fill="#F28A20"/>
<path d="M4.51426 907.563C13.9482 872.047 23.8059 836.693 34.0874 801.501L42.096 773.328C43.9708 766.734 45.4798 759.783 48.3982 753.697C51.4019 747.434 56.218 742.573 61.6171 739.226C66.8772 735.966 72.3964 734.585 78.3343 734.892C89.1413 735.449 104.564 741.343 115.478 744.61C131.588 749.434 149.362 754.189 165.095 760.076C175.266 763.882 181.746 771.053 186.503 782.158C186.845 782.938 187.164 783.732 187.46 784.538C187.756 785.343 188.028 786.16 188.277 786.987C188.526 787.815 188.75 788.651 188.951 789.496C189.151 790.342 189.326 791.194 189.477 792.053C189.628 792.912 189.754 793.776 189.855 794.645C189.955 795.515 190.031 796.387 190.081 797.262C190.131 798.137 190.156 799.014 190.156 799.891C190.155 800.768 190.129 801.644 190.078 802.519C189.497 812.262 183.881 831.982 181.381 842.367C176.159 864.064 171.271 885.959 165.534 907.474C157.568 906.43 148.769 907.251 140.745 907.252L89.2495 907.239L33.3582 907.155C24.3468 907.137 13.2428 906.201 4.51426 907.563Z" fill="#F28A20"/>
<path d="M145.311 441.497C146.13 461.352 145.533 481.689 145.484 501.574C145.462 510.471 144.936 519.839 145.951 528.663C146.141 530.221 146.379 531.769 146.666 533.306C146.954 534.844 147.289 536.368 147.671 537.876C148.054 539.385 148.483 540.876 148.958 542.348C149.434 543.82 149.955 545.27 150.522 546.697C152.978 552.944 157.372 562.326 163.335 564.625C164.899 565.227 166.587 565.267 168.072 564.356C177.622 558.499 173.979 514.169 174.262 501.647C174.432 494.145 175.116 486.209 176.871 478.973C178.149 473.707 180.384 467.694 184.741 465.068C187.196 463.589 190.141 463.252 192.753 464.362C196.801 466.082 199.509 470.786 201.313 475.149C203.958 481.552 205.125 488.693 205.719 495.726C206.417 503.996 206.265 512.346 206.253 520.646L206.19 553.264L206.157 594.086C206.176 612.139 206.226 629.36 203.366 647.203C201.742 657.341 198.702 667.085 195.898 676.839L185.193 713.658C180.412 728.92 176.245 744.417 171.22 759.575C160.825 755.432 150.121 752.308 139.513 749.014L81.7299 731.594L92.6103 689.883C94.5586 682.224 97.176 674.024 97.8127 666.055C98.2465 660.637 97.5465 654.712 97.27 649.265L95.5453 616.82L93.0891 571.668C92.5163 561.037 91.4221 549.952 92.4128 539.331C92.5566 537.828 92.7515 536.334 92.9975 534.849C93.2429 533.364 93.5386 531.894 93.8847 530.437C94.2312 528.979 94.6265 527.541 95.0705 526.121C95.515 524.701 96.007 523.304 96.5463 521.93C101.201 510.034 108.537 500.083 114.99 489.513L131.827 462.502C136.213 455.448 140.474 448.136 145.311 441.497Z" fill="white"/>
<path d="M507.138 275.651L528.03 275.553C541.41 275.515 554.492 274.139 564.695 286.23C569.083 291.429 572.155 298.651 573.072 305.882C574.375 316.169 573.668 327.39 573.671 337.786L573.727 394.7L573.806 590.309C559.91 583.302 545.914 576.581 531.819 570.146L531.863 301.462C520.574 301.182 509.2 301.591 497.903 301.593L424.371 301.569L211.533 301.454L183.244 301.382C182.612 321.154 183.214 341.197 183.282 360.989L183.36 462.566C177.632 467.449 175.789 473.71 174.113 481.369C174.242 476.652 175.199 451.738 173.566 449.048C172.373 449.749 172.015 451.565 171.824 453.039C171.173 458.086 171.892 464.203 171.936 469.372L172.028 519.161C172.046 528.073 172.665 537.352 171.873 546.21C171.486 550.532 170.625 558.028 167.971 561.285C167.285 562.128 166.643 562.476 165.64 562.52C163.803 562.601 162.214 561.311 160.931 559.9C152.406 550.519 147.775 533.434 147.618 520.037C147.057 471.93 147.553 423.739 147.534 375.624L147.522 332.983C147.524 323.889 146.936 314.173 148.279 305.204C149.331 298.18 152.297 291.934 156.564 286.887C161.067 281.561 166.928 277.421 173.336 276.38C182.486 274.893 194.233 275.912 203.608 275.905L265.533 275.759L507.138 275.651Z" fill="#343D95"/>
<path d="M553.574 449.487C554.711 449.405 555.981 449.249 557.111 449.456C559.302 449.857 561.498 451.705 562.658 453.888C562.797 454.144 562.924 454.408 563.039 454.679C563.154 454.95 563.257 455.227 563.348 455.51C563.439 455.794 563.518 456.082 563.583 456.375C563.649 456.668 563.702 456.964 563.742 457.264C563.782 457.563 563.809 457.864 563.823 458.166C563.836 458.469 563.836 458.771 563.824 459.074C563.81 459.376 563.784 459.677 563.745 459.976C563.706 460.276 563.654 460.572 563.589 460.865C562.842 464.285 560.88 466.01 558.378 467.673C556.975 468.081 555.571 468.2 554.159 467.769C552.148 467.157 550.515 465.694 549.493 463.573C549.351 463.277 549.221 462.973 549.105 462.661C548.989 462.349 548.886 462.031 548.796 461.707C548.707 461.383 548.632 461.055 548.571 460.723C548.51 460.391 548.463 460.055 548.43 459.717C548.398 459.379 548.38 459.04 548.377 458.7C548.374 458.36 548.385 458.02 548.41 457.68C548.436 457.342 548.476 457.005 548.531 456.671C548.585 456.337 548.653 456.007 548.736 455.681C549.517 452.535 551.223 451.028 553.574 449.487Z" fill="#2A2626"/>
<path d="M553.915 452.246C554.648 452.158 555.403 452.055 556.14 452.086C557.626 452.146 559.164 453.139 560.127 454.439C561.158 455.83 561.553 457.566 561.385 459.385C561.144 461.981 559.803 463.512 558.116 465.019C557.247 465.165 556.316 465.357 555.441 465.212C553.938 464.962 552.552 463.92 551.673 462.483C550.756 460.986 550.489 459.062 550.762 457.263C551.129 454.845 552.295 453.646 553.915 452.246Z" fill="white"/>
<path d="M209.317 638.09L465.973 638.177C464.475 669.668 466.609 713.907 480.216 741.645C484.937 751.267 491.799 759.537 497.707 768.168C485.682 768.447 473.632 768.238 461.604 768.197L181.253 768.122L173.489 760.74C177.705 748.048 181.25 735.092 185.098 722.246C191.016 702.906 196.683 683.465 202.099 663.924C203.499 658.685 204.731 653.392 205.796 648.045C206.293 645.433 205.888 640.699 207.266 638.61C207.647 638.032 208.716 638.153 209.317 638.09Z" fill="#A2B4DC"/>
<path d="M183.165 770.831C220.996 769.991 258.963 770.724 296.807 770.718L499.913 771.085C507.268 781.305 515.529 791.024 521.98 802.052C519.769 806.542 517.73 811.117 516.745 816.206C515.425 823.031 515.962 830.265 517.956 836.833C521.189 847.487 530.306 861.382 535.791 871.17L555.357 906.794C467.331 907.826 379.302 908.108 291.272 907.641C264.074 907.335 236.874 907.252 209.674 907.391L183.045 907.193C178.002 907.157 172.822 906.861 167.8 907.343C172.625 891.813 175.909 875.302 179.745 859.395C182.185 849.291 184.558 839.166 186.865 829.019C188.441 822.315 190.288 815.536 191.422 808.715C193.98 793.333 190.383 783.341 183.165 770.831Z" fill="#D6E5F4"/>
<path d="M185.332 304.065C199.187 303.791 213.082 304.085 226.941 304.09L307.454 304.075L529.771 304.136L529.474 569.446C524.479 567.897 519.761 566.946 514.602 566.569C514.126 533.753 514.613 500.82 514.588 467.988C506.716 467.086 498.359 467.682 490.434 467.67C471.594 467.644 452.639 468.148 433.814 467.45C430.813 464.712 428.01 461.67 425.006 458.916C425.237 461.856 425.577 464.653 426.355 467.467L382.175 467.447C374.424 467.457 365.551 466.473 357.939 468.21C357.736 468.563 357.663 468.645 357.543 469.109C356.417 473.459 357.19 518.912 357.207 527.879C357.243 547.702 356.687 567.727 357.273 587.525C357.338 589.699 357.498 591.914 358.244 593.926C359.538 594.762 439.344 594.28 448.37 594.29L474.637 594.368C477.216 598.727 479.281 603.593 481.472 608.233L208.648 608.458L208.607 594.304C253.968 593.618 299.368 594.592 344.736 594.113C345.521 584.621 344.995 574.527 344.999 564.968L344.95 508.282L344.944 415.854C344.943 398.538 345.326 381.089 344.796 363.788C339.057 363.454 333.227 363.687 327.478 363.693L295.569 363.727L199.348 363.811C198.956 375.053 199.231 386.413 199.228 397.668C199.27 420.445 199.206 443.223 199.037 465.999C198.257 465.271 197.468 464.557 196.67 463.857C192.988 460.653 189.799 460.726 185.487 461.491L185.332 304.065Z" fill="white"/>
<path d="M357.997 364.048C369.997 363.866 382.018 364.048 394.021 364.024C405.358 364.001 416.728 363.76 428.06 364.088C428.258 383.428 427.975 402.791 428.081 422.135C428.132 431.622 429.158 444.059 428.038 453.149L427.63 453.196L427.863 453.448L427.464 453.736C420.001 454.674 411.882 453.96 404.341 453.966L357.509 453.912C357.36 445.353 357.123 366.231 357.439 365.062C357.544 364.679 357.811 364.387 357.997 364.048Z" fill="#2A2626"/>
<path d="M374.356 366.378C391.68 366.227 409.004 366.192 426.328 366.272L426.364 419.942C426.37 430.397 426.631 440.965 426.204 451.404C421.035 451.733 415.762 451.518 410.581 451.538L359.424 451.649L359.264 366.496L374.356 366.378Z" fill="white"/>
<path d="M441.471 364.017C457.142 363.633 472.854 363.874 488.529 363.876C496.821 363.877 506.468 362.891 514.556 364.44C514.894 382.647 514.694 400.9 514.69 419.111C514.687 429.609 515.18 440.49 514.631 450.941C514.572 452.057 514.603 452.943 513.965 453.837C505.713 454.194 497.362 453.876 489.098 453.867L440.864 453.806L440.739 394.843C440.719 385.48 440.04 375.524 440.777 366.241C440.849 365.325 441.063 364.782 441.471 364.017Z" fill="#2A2626"/>
<path d="M442.655 366.198C465.788 365.895 489.403 365.489 512.511 366.458L512.781 451.643L442.76 451.534C442.282 423.124 442.659 394.618 442.655 366.198Z" fill="#D6E5F4"/>
<path d="M198.929 318.832L422.131 318.839L480.67 318.809C491.916 318.796 503.217 318.504 514.454 318.916C514.456 329.434 514.717 340.053 514.271 350.556C507.363 351.739 496.375 350.832 489.138 350.809L433.931 350.628L251.337 350.525C245.056 350.527 201.793 351.383 199.493 350.08C197.953 344.105 198.905 325.958 198.929 318.832Z" fill="#2A2626"/>
<path d="M200.924 321.251L512.286 321.267C512.326 330.318 512.319 339.368 512.264 348.419C499.38 348.901 486.372 348.452 473.477 348.369L409.798 348.166L200.926 348.247C200.74 339.262 200.902 330.24 200.924 321.251Z" fill="white"/>
<path d="M500.968 325.498C501.5 325.638 502.156 325.6 502.479 326.171C503.697 328.327 502.95 334.289 502.692 336.813L501.485 336.234C499.905 333.658 500.784 328.474 500.968 325.498Z" fill="#2A2626"/>
<path d="M234.829 327.182C235.572 327.596 235.443 327.66 235.761 328.488C235.061 330.605 232.577 330.778 231.619 332.595C230.241 335.207 231.31 339.188 230.241 342.163C229.83 341.762 229.572 341.599 229.313 341.068C228.335 339.057 228.3 335.654 229.005 333.514C230.215 329.837 231.855 328.616 234.829 327.182Z" fill="#2A2626"/>
<path d="M145.47 402.566L66.9554 402.671C54.1544 402.675 40.8446 403.503 28.0997 402.394C25.7831 402.192 21.9146 401.796 20.0765 400.144C18.051 398.323 17.1396 394.973 17.0262 392.113C16.793 386.229 17.0408 380.206 17.0606 374.309L17.0637 341.447L17.0355 229.429L17.0396 137.828C17.0305 122.248 16.2331 106.161 17.0975 90.6402C17.2452 87.988 17.987 86.2171 19.5523 84.3006C20.8968 82.6545 22.6243 81.3478 24.5934 81.1146C33.4404 80.0669 42.9556 80.8595 51.8696 80.8827L100.761 80.7838L275.946 80.7618C280.153 80.7569 285.276 79.9859 288.419 83.89C289.812 85.6206 290.341 87.4362 290.526 89.7682C291.056 96.4618 290.698 103.556 290.708 110.298L290.692 151.591L290.788 272.746C286.435 273.462 281.78 273.145 277.388 273.133C269.255 273.137 261.122 273.048 252.99 272.866C234.774 272.755 216.559 272.764 198.343 272.891C189.144 272.886 178.563 271.549 169.649 274.418C162.696 276.657 156.449 281.902 152.141 288.642C151.54 289.582 150.978 290.528 150.48 291.547L149.491 293.317C144.101 305.449 145.017 322.109 145.47 335.608C145.362 350.621 145.923 365.761 145.428 380.749C145.585 388.01 145.472 395.301 145.47 402.566Z" fill="white"/>
<path d="M50.2761 270.33L189.983 270.379C197.85 270.356 255.585 269.301 257.167 270.04C257.239 271.101 257.21 271.55 257.716 272.465C260.535 272.864 263.536 272.642 266.381 272.639C274.434 272.632 282.771 272.068 290.788 272.746C286.435 273.462 281.78 273.145 277.388 273.133C269.255 273.137 261.122 273.048 252.99 272.866C234.774 272.755 216.559 272.764 198.343 272.891C189.144 272.886 178.563 271.549 169.649 274.418C162.695 276.657 156.449 281.902 152.141 288.642C151.54 289.582 150.978 290.528 150.48 291.547C139.471 291.309 128.413 291.575 117.399 291.581L50.186 291.594C50.2492 284.507 50.2793 277.418 50.2761 270.33Z" fill="#A2B4DC"/>
<path d="M50.3875 137.215C74.6235 138.34 99.031 137.532 123.287 137.528L257.703 137.53L257.685 157.474L50.2729 157.492C50.2974 150.776 49.9648 143.904 50.3875 137.215Z" fill="#A2B4DC"/>
<path d="M50.2366 159.224H257.624C257.507 165.845 257.513 172.476 257.462 179.099C256.805 179.639 256.008 179.63 255.217 179.665C248.022 179.979 240.715 179.657 233.507 179.661L189.416 179.681L50.2263 179.6L50.2366 159.224Z" fill="#A2B4DC"/>
<path d="M50.2919 248.133L257.325 248.112L257.288 268.452L50.3014 268.714C50.3638 261.857 50.2998 254.992 50.2919 248.133Z" fill="#A2B4DC"/>
<path d="M50.3101 203.683L257.37 203.675L257.426 224.116C233.983 224.76 210.393 224.201 186.939 224.199L50.3132 224.167L50.3101 203.683Z" fill="#A2B4DC"/>
<path d="M50.2832 181.453C73.2789 181.057 96.3322 181.445 119.333 181.444L257.42 181.436L257.348 201.911C245.775 202.22 234.162 201.972 222.582 202.01L159.798 202.18L50.2895 201.894L50.2832 181.453Z" fill="#A2B4DC"/>
<path d="M50.3037 225.9L257.411 225.864L257.349 246.308C246.891 246.719 236.326 246.408 225.855 246.47L160.8 246.633L50.2658 246.549L50.3037 225.9Z" fill="#A2B4DC"/>
<path d="M50.1758 292.916C71.5532 293.106 92.9308 293.159 114.309 293.075C125.951 293.058 137.885 292.412 149.491 293.317C144.101 305.449 145.017 322.109 145.469 335.608C145.362 350.621 145.923 365.761 145.428 380.749C144.265 374.85 145.056 361.669 145.078 355.049C134.817 354.039 124.131 354.558 113.829 354.47C92.6335 354.236 71.4381 354.273 50.2429 354.58L50.1971 337.272C73.3105 336.818 96.5021 337.027 119.621 337.011C125.447 337.007 140.537 337.908 144.845 336.74L145.133 335.939C140.389 334.674 127.107 335.595 121.331 335.592L50.2026 335.931C50.2579 328.877 50.2355 321.824 50.1355 314.771L119.942 314.811C124.928 314.81 141.5 315.618 144.998 314.459L145.098 313.889C144.614 313.477 144.269 313.28 143.661 313.258C134.322 312.917 124.878 313.278 115.526 313.238L50.1284 313.068C50.1737 306.351 50.1895 299.634 50.1758 292.916Z" fill="#A2B4DC"/>
<path d="M592.025 98.6309C592.951 99.3623 593.443 99.8335 594.067 100.96L508.146 101.122L481.002 101.016C476.09 100.994 470.921 100.622 466.036 101.17C464.375 101.356 463.055 101.695 461.821 103.083C460.245 104.857 459.958 107.61 459.805 110.044C459.505 114.825 459.746 119.805 459.772 124.604C459.857 134.084 459.892 143.564 459.877 153.044C459.817 178.608 459.191 204.336 459.667 229.882C459.723 232.851 459.644 237.181 461.607 239.335C462.793 240.636 464.243 241.296 465.843 241.519C470.313 242.143 475.077 241.808 479.578 241.792L502.345 241.72L593.998 241.834L621.717 241.921C626.554 241.93 631.679 241.548 636.476 242.172L636.213 244.357L523.6 244.246L487.493 244.343C480.659 244.366 473.65 244.742 466.834 244.154C464.495 243.952 462.581 243.699 460.772 241.771C458.05 238.872 457.762 234.792 457.601 230.704C457.26 222.003 457.566 213.157 457.581 204.438L457.627 156.133L457.546 125.997C457.518 120.557 457.156 114.788 457.652 109.388C457.908 106.6 458.379 103.527 460.122 101.456C461.376 99.9668 462.951 99.0382 464.72 98.7901C469.461 98.1245 474.534 98.5466 479.303 98.5744L505.178 98.6762L592.025 98.6309Z" fill="#2A2626"/>
<path d="M359.935 87.5106C364.374 87.0772 389.505 86.7124 392.813 88.0243C394.686 88.7675 395.68 91.2591 396.549 93.1354C395.92 128.643 396.753 164.232 396.564 199.753L396.552 218.7C396.583 223.361 396.971 228.583 396.184 233.164C395.821 235.272 394.399 236.437 392.983 237.573C388.555 238.801 368.921 238.572 363.761 237.979C361.766 237.75 358.951 237.196 357.668 235.193C356.743 233.749 356.4 232.365 356.272 230.585C355.657 222.017 356.144 212.932 356.145 204.308L356.164 152.771L356.107 114.428C356.097 107.647 355.587 100.217 356.393 93.4993C356.744 90.5736 358.003 89.2405 359.935 87.5106Z" fill="#2A2626"/>
<path d="M360.953 89.882C366.582 89.6409 372.261 89.8006 377.895 89.7747C381.652 89.7575 385.997 89.2164 389.678 90.0207C391.237 90.3613 392.379 90.8425 393.571 92.071C394.194 93.7344 394.32 95.4554 394.356 97.2589C394.537 106.345 394.655 230.892 393.976 232.871C393.487 234.297 392.519 234.876 391.432 235.539C382.649 235.841 373.59 236.04 364.808 235.681C363.08 235.61 360.453 235.557 359.203 233.995C357.349 223.16 358.293 210.25 358.267 199.178L358.346 131.016L358.382 106.253C358.383 102.357 358.011 97.7866 358.517 93.9761C358.781 91.9831 359.606 91.0294 360.953 89.882Z" fill="#F28A20"/>
<path d="M636.476 242.172C631.679 241.548 626.554 241.93 621.717 241.921L593.998 241.834L502.345 241.72L479.578 241.792C475.077 241.809 470.313 242.143 465.843 241.519C464.243 241.296 462.793 240.636 461.607 239.335C459.644 237.181 459.723 232.851 459.667 229.882C459.191 204.336 459.817 178.608 459.877 153.044C459.892 143.564 459.857 134.084 459.772 124.604C459.746 119.805 459.505 114.825 459.805 110.044C459.958 107.61 460.245 104.857 461.821 103.083C463.055 101.695 464.375 101.356 466.036 101.17C470.921 100.622 476.09 100.994 481.002 101.016L508.146 101.122L594.067 100.96C626.599 142.045 636.11 187.593 636.476 242.172Z" fill="#D6E5F4"/>
<path d="M561.824 115.8C564.454 115.619 567.116 115.902 569.554 117.147C569.763 117.251 569.969 117.362 570.173 117.479C570.377 117.596 570.578 117.719 570.777 117.848C570.975 117.977 571.17 118.112 571.362 118.253C571.555 118.394 571.744 118.541 571.93 118.693C572.116 118.846 572.298 119.004 572.477 119.167C572.656 119.332 572.831 119.501 573.002 119.675C573.174 119.849 573.341 120.028 573.505 120.213C573.668 120.397 573.827 120.587 573.983 120.781C574.137 120.975 574.288 121.174 574.435 121.377C574.581 121.58 574.723 121.788 574.86 121.999C574.996 122.212 575.129 122.428 575.256 122.647C575.384 122.867 575.506 123.091 575.624 123.319C575.742 123.546 575.854 123.777 575.962 124.011C576.069 124.245 576.171 124.482 576.268 124.723C576.365 124.963 576.457 125.206 576.543 125.453C576.629 125.698 576.71 125.947 576.785 126.198C577.94 130.068 577.732 134.204 576.124 137.855C573.9 142.91 570.197 145.176 565.751 146.717C562.397 147.121 559.274 146.698 556.325 144.641C555.95 144.378 555.587 144.094 555.236 143.79C554.884 143.484 554.547 143.159 554.223 142.815C553.9 142.47 553.591 142.108 553.299 141.728C553.006 141.347 552.73 140.95 552.471 140.538C552.211 140.125 551.971 139.699 551.748 139.258C551.524 138.817 551.321 138.365 551.136 137.901C550.952 137.436 550.788 136.962 550.643 136.479C550.499 135.995 550.375 135.504 550.273 135.006C549.458 131.002 550.167 126.813 551.996 123.33C554.312 118.918 557.617 116.859 561.824 115.8Z" fill="#2A2626"/>
<path d="M561.316 118.09C563.567 118 565.616 117.899 567.778 118.816C568.17 118.977 568.554 119.161 568.93 119.369C569.305 119.577 569.671 119.808 570.026 120.06C570.381 120.312 570.724 120.585 571.056 120.879C571.387 121.174 571.704 121.487 572.008 121.82C572.311 122.153 572.599 122.502 572.871 122.87C573.143 123.238 573.399 123.621 573.637 124.02C573.875 124.418 574.096 124.83 574.298 125.256C574.5 125.682 574.682 126.118 574.845 126.566C575.932 129.629 575.987 133.089 574.851 136.146C573.263 140.419 570.147 142.73 566.567 144.327C563.76 144.85 561.028 144.623 558.431 143.179C558.087 142.992 557.752 142.785 557.426 142.558C557.1 142.332 556.784 142.087 556.479 141.824C556.173 141.561 555.879 141.28 555.598 140.983C555.316 140.685 555.048 140.372 554.793 140.044C554.537 139.716 554.297 139.373 554.071 139.016C553.844 138.66 553.633 138.291 553.439 137.91C553.244 137.529 553.065 137.137 552.904 136.735C552.741 136.333 552.597 135.923 552.47 135.505C551.496 132.236 551.768 128.509 553.119 125.441C554.935 121.315 557.726 119.506 561.316 118.09Z" fill="#F28A20"/>
<path d="M581.163 162.626C581.777 162.554 582.392 162.515 583.01 162.509C583.627 162.503 584.243 162.529 584.858 162.588C585.474 162.647 586.085 162.738 586.693 162.862C587.301 162.986 587.903 163.141 588.5 163.328C589.095 163.516 589.683 163.735 590.262 163.985C590.842 164.234 591.41 164.513 591.968 164.823C592.526 165.133 593.07 165.472 593.602 165.84C594.134 166.207 594.65 166.602 595.151 167.024C595.424 167.259 595.692 167.502 595.955 167.753C596.217 168.005 596.474 168.263 596.726 168.529C596.977 168.795 597.223 169.068 597.463 169.349C597.703 169.629 597.937 169.917 598.164 170.21C598.392 170.505 598.613 170.806 598.828 171.113C599.043 171.42 599.251 171.733 599.452 172.053C599.654 172.372 599.848 172.697 600.036 173.028C600.223 173.358 600.404 173.694 600.577 174.036C600.75 174.377 600.915 174.723 601.074 175.074C601.233 175.426 601.383 175.781 601.527 176.141C601.67 176.501 601.805 176.865 601.933 177.232C602.061 177.6 602.181 177.972 602.292 178.346C602.404 178.721 602.508 179.099 602.603 179.48C602.699 179.861 602.787 180.244 602.867 180.63C602.946 181.016 603.016 181.405 603.079 181.795C603.142 182.185 603.197 182.577 603.243 182.97C603.958 189.107 602.528 194.993 599.27 199.851C595.554 205.391 590.739 208.183 584.868 209.07C580.192 209.503 575.384 208.399 571.414 205.392C571.135 205.182 570.862 204.964 570.594 204.737C570.326 204.512 570.063 204.277 569.805 204.035C569.547 203.792 569.295 203.542 569.048 203.284C568.802 203.027 568.561 202.762 568.326 202.489C568.091 202.217 567.862 201.937 567.64 201.651C567.417 201.365 567.201 201.071 566.992 200.771C566.782 200.472 566.579 200.167 566.383 199.855C566.187 199.543 565.998 199.225 565.816 198.901C565.634 198.578 565.46 198.249 565.292 197.915C565.125 197.581 564.965 197.243 564.813 196.899C564.661 196.555 564.516 196.207 564.379 195.854C564.242 195.501 564.113 195.145 563.993 194.784C563.872 194.424 563.759 194.06 563.654 193.693C563.549 193.326 563.452 192.955 563.364 192.582C563.275 192.209 563.195 191.833 563.124 191.454C563.052 191.077 562.988 190.697 562.933 190.315C562.876 189.92 562.827 189.523 562.786 189.125C562.745 188.727 562.713 188.328 562.689 187.928C562.665 187.528 562.65 187.128 562.643 186.726C562.636 186.326 562.638 185.925 562.649 185.525C562.659 185.124 562.678 184.723 562.706 184.324C562.733 183.924 562.769 183.525 562.813 183.128C562.857 182.73 562.91 182.334 562.972 181.94C563.033 181.546 563.103 181.153 563.181 180.763C563.259 180.373 563.345 179.985 563.44 179.6C563.534 179.215 563.636 178.832 563.747 178.453C563.858 178.074 563.977 177.698 564.104 177.325C564.231 176.953 564.365 176.585 564.508 176.221C564.651 175.856 564.801 175.496 564.958 175.14C565.116 174.784 565.282 174.433 565.454 174.088C565.627 173.741 565.807 173.401 565.995 173.066C566.182 172.73 566.377 172.4 566.578 172.076C570.253 166.161 575.177 163.679 581.163 162.626Z" fill="#2A2626"/>
<path d="M581.698 164.95C585.836 164.709 589.821 165.687 593.298 168.434C593.552 168.636 593.803 168.846 594.049 169.064C594.295 169.282 594.536 169.506 594.772 169.738C595.008 169.97 595.239 170.209 595.465 170.455C595.691 170.7 595.911 170.953 596.126 171.211C596.341 171.47 596.55 171.735 596.753 172.006C596.957 172.276 597.154 172.553 597.346 172.836C597.537 173.119 597.723 173.407 597.902 173.701C598.081 173.994 598.254 174.293 598.419 174.598C598.586 174.902 598.745 175.211 598.898 175.524C599.051 175.837 599.197 176.155 599.336 176.477C599.475 176.799 599.607 177.125 599.732 177.456C599.856 177.786 599.974 178.119 600.085 178.456C600.195 178.793 600.299 179.133 600.395 179.476C600.49 179.819 600.579 180.165 600.66 180.513C600.741 180.862 600.814 181.212 600.88 181.565C600.945 181.918 601.004 182.272 601.054 182.628C601.1 182.964 601.138 183.302 601.17 183.641C601.201 183.98 601.225 184.319 601.241 184.659C601.258 185 601.268 185.34 601.27 185.681C601.272 186.022 601.268 186.363 601.255 186.703C601.243 187.043 601.223 187.383 601.196 187.723C601.17 188.062 601.136 188.4 601.094 188.737C601.053 189.075 601.004 189.411 600.949 189.745C600.893 190.08 600.83 190.413 600.76 190.743C600.691 191.074 600.614 191.403 600.53 191.729C600.446 192.055 600.355 192.379 600.258 192.7C600.16 193.02 600.055 193.339 599.944 193.654C599.833 193.969 599.715 194.28 599.59 194.588C599.466 194.896 599.335 195.2 599.197 195.5C599.059 195.801 598.916 196.097 598.765 196.388C598.615 196.68 598.459 196.967 598.296 197.25C598.134 197.532 597.966 197.81 597.791 198.083C594.447 203.344 589.884 205.851 584.475 206.772C579.79 207.063 575.213 205.775 571.45 202.374C571.224 202.167 571.002 201.954 570.785 201.734C570.568 201.515 570.355 201.29 570.147 201.057C569.94 200.826 569.737 200.588 569.539 200.345C569.341 200.101 569.149 199.852 568.962 199.598C568.775 199.343 568.593 199.083 568.416 198.818C568.24 198.553 568.069 198.283 567.904 198.008C567.739 197.733 567.58 197.453 567.427 197.169C567.274 196.885 567.126 196.596 566.985 196.304C566.844 196.011 566.709 195.714 566.581 195.414C566.452 195.114 566.33 194.81 566.214 194.502C566.098 194.195 565.989 193.884 565.886 193.571C565.784 193.257 565.688 192.94 565.598 192.621C565.508 192.301 565.426 191.979 565.35 191.655C565.274 191.331 565.205 191.005 565.143 190.677C565.081 190.348 565.026 190.019 564.977 189.688C564.929 189.357 564.887 189.024 564.853 188.69C564.819 188.342 564.793 187.994 564.774 187.646C564.755 187.297 564.743 186.948 564.739 186.598C564.735 186.248 564.738 185.899 564.748 185.55C564.758 185.2 564.775 184.852 564.8 184.504C564.825 184.155 564.857 183.807 564.896 183.461C564.935 183.114 564.982 182.769 565.035 182.425C565.089 182.081 565.15 181.74 565.218 181.399C565.286 181.059 565.361 180.721 565.442 180.385C565.525 180.048 565.614 179.715 565.709 179.384C565.805 179.053 565.908 178.725 566.018 178.4C566.128 178.075 566.244 177.753 566.367 177.434C566.49 177.116 566.62 176.801 566.756 176.49C566.892 176.179 567.035 175.872 567.184 175.57C567.333 175.267 567.488 174.968 567.649 174.675C567.811 174.381 567.978 174.092 568.151 173.807C568.325 173.523 568.504 173.243 568.689 172.969C571.979 168.055 576.546 165.76 581.698 164.95Z" fill="white"/>
<path d="M496.946 157.099C497.719 157.034 498.493 157.008 499.269 157.021C500.044 157.033 500.817 157.083 501.589 157.171C502.361 157.259 503.128 157.385 503.89 157.549C504.653 157.712 505.408 157.913 506.156 158.15C506.905 158.389 507.643 158.663 508.372 158.973C509.1 159.284 509.816 159.629 510.52 160.01C511.224 160.391 511.913 160.806 512.587 161.254C513.261 161.703 513.918 162.184 514.557 162.698C520.995 167.799 525.522 175.427 526.941 184.417C528.329 193.215 526.458 202.178 522.097 209.475C517.014 217.98 510.072 222.181 501.522 224.015C494.088 224.859 486.729 222.774 480.786 217.355C480.407 217.009 480.035 216.652 479.67 216.285C479.306 215.917 478.949 215.54 478.6 215.152C478.251 214.764 477.91 214.367 477.577 213.96C477.245 213.553 476.921 213.136 476.606 212.71C476.291 212.284 475.985 211.85 475.688 211.407C475.391 210.964 475.104 210.512 474.826 210.052C474.548 209.593 474.279 209.126 474.021 208.651C473.761 208.175 473.513 207.693 473.274 207.205C473.035 206.715 472.807 206.219 472.589 205.717C472.371 205.215 472.163 204.707 471.966 204.193C471.77 203.679 471.584 203.159 471.409 202.634C471.233 202.109 471.069 201.58 470.916 201.046C470.762 200.512 470.621 199.974 470.49 199.432C470.359 198.889 470.239 198.343 470.131 197.794C470.023 197.245 469.927 196.694 469.841 196.139C469.756 195.584 469.683 195.027 469.621 194.469C469.565 193.934 469.519 193.397 469.485 192.859C469.451 192.321 469.429 191.783 469.418 191.243C469.407 190.704 469.407 190.165 469.419 189.626C469.43 189.086 469.453 188.548 469.487 188.01C469.522 187.472 469.568 186.936 469.625 186.4C469.682 185.865 469.75 185.332 469.829 184.801C469.909 184.269 470 183.741 470.102 183.215C470.204 182.689 470.317 182.166 470.441 181.647C470.565 181.128 470.7 180.612 470.845 180.101C470.991 179.589 471.148 179.082 471.315 178.579C471.482 178.076 471.659 177.579 471.848 177.087C472.036 176.595 472.234 176.108 472.443 175.627C472.652 175.147 472.871 174.673 473.099 174.204C473.328 173.736 473.567 173.275 473.815 172.821C474.063 172.367 474.321 171.92 474.588 171.481C474.855 171.042 475.131 170.611 475.417 170.187C480.959 162.043 488.274 158.233 496.946 157.099Z" fill="#2A2626"/>
<path d="M494.81 159.817C501.486 159.29 507.193 160.105 512.931 164.45C513.305 164.734 513.673 165.029 514.035 165.333C514.398 165.638 514.753 165.953 515.102 166.279C515.451 166.605 515.792 166.94 516.127 167.285C516.462 167.63 516.789 167.985 517.109 168.349C517.428 168.713 517.74 169.087 518.044 169.469C518.348 169.851 518.644 170.242 518.931 170.641C519.219 171.04 519.498 171.448 519.768 171.863C520.038 172.278 520.3 172.701 520.552 173.132C520.805 173.562 521.048 174 521.282 174.445C521.517 174.889 521.741 175.34 521.956 175.798C522.172 176.255 522.377 176.719 522.572 177.188C522.768 177.658 522.954 178.133 523.129 178.613C523.305 179.093 523.471 179.578 523.626 180.068C523.782 180.558 523.927 181.051 524.061 181.549C524.195 182.047 524.319 182.549 524.432 183.055C524.546 183.56 524.649 184.068 524.74 184.579C526.127 192.617 524.519 200.75 520.643 207.519C516.055 215.532 509.669 219.748 501.724 221.628C495.038 222.144 489.144 221.005 483.501 216.562C483.133 216.267 482.772 215.963 482.417 215.648C482.062 215.333 481.714 215.008 481.372 214.674C481.031 214.339 480.696 213.995 480.369 213.642C480.042 213.288 479.722 212.925 479.41 212.553C479.098 212.181 478.793 211.8 478.497 211.41C478.201 211.021 477.913 210.624 477.633 210.218C477.353 209.813 477.082 209.399 476.819 208.978C476.557 208.556 476.303 208.127 476.058 207.692C475.813 207.256 475.578 206.814 475.351 206.365C475.125 205.916 474.908 205.46 474.7 204.999C474.493 204.537 474.295 204.07 474.107 203.597C473.919 203.124 473.741 202.646 473.573 202.163C473.405 201.68 473.247 201.193 473.099 200.7C472.951 200.208 472.813 199.712 472.685 199.212C472.558 198.712 472.441 198.209 472.335 197.702C472.228 197.196 472.132 196.687 472.047 196.175C471.967 195.675 471.898 195.173 471.839 194.669C471.78 194.165 471.732 193.66 471.696 193.153C471.659 192.646 471.633 192.138 471.618 191.63C471.603 191.122 471.599 190.613 471.606 190.105C471.613 189.596 471.631 189.088 471.66 188.58C471.688 188.072 471.728 187.566 471.779 187.061C471.83 186.556 471.891 186.052 471.964 185.551C472.036 185.049 472.119 184.55 472.213 184.054C472.307 183.557 472.412 183.063 472.527 182.573C472.642 182.083 472.768 181.596 472.904 181.113C473.041 180.63 473.187 180.151 473.344 179.677C473.5 179.203 473.668 178.733 473.845 178.269C474.022 177.805 474.209 177.346 474.406 176.893C474.603 176.439 474.809 175.992 475.026 175.55C475.241 175.11 475.467 174.675 475.702 174.248C475.937 173.82 476.181 173.399 476.434 172.986C480.979 165.423 487.152 161.428 494.81 159.817Z" fill="white"/>
</g>
<defs>
<clipPath id="clip0_1_139">
<rect width="809" height="948" fill="white" transform="translate(-52)"/>
</clipPath>
</defs>
</svg>
